<?xml version="1.0" encoding="UTF-8" standalone="no" ?>
<!DOCTYPE svg PUBLIC "-//W3C//DTD SVG 1.1//EN" "http://www.w3.org/Graphics/SVG/1.1/DTD/svg11.dtd">
<svg xmlns="http://www.w3.org/2000/svg" xmlns:xlink="http://www.w3.org/1999/xlink" version="1.1" width="1080" height="1080" viewBox="0 0 1080 1080" xml:space="preserve">
<desc>Created with Fabric.js 5.2.4</desc>
<defs>
</defs>
<rect x="0" y="0" width="100%" height="100%" fill="transparent"></rect>
<g transform="matrix(1 0 0 1 540 540)" id="878eb45c-2cdf-41fa-910e-e88c6fd6b9eb"  >
</g>
<g transform="matrix(1 0 0 1 540 540)" id="2acb995a-3d8a-4d2d-9b6d-6f1cfb7a0f50"  >
<rect style="stroke: none; stroke-width: 1; stroke-dasharray: none; stroke-linecap: butt; stroke-dashoffset: 0; stroke-linejoin: miter; stroke-miterlimit: 4; fill: rgb(255,255,255); fill-rule: nonzero; opacity: 1; visibility: hidden;" vector-effect="non-scaling-stroke"  x="-540" y="-540" rx="0" ry="0" width="1080" height="1080" />
</g>
<g transform="matrix(1 0 0 1 540 540)"  >
<path style="stroke: rgb(0,0,0); stroke-width: 0; stroke-dasharray: none; stroke-linecap: butt; stroke-dashoffset: 0; stroke-linejoin: miter; stroke-miterlimit: 4; fill: rgb(0,0,0); fill-rule: nonzero; opacity: 1;" vector-effect="non-scaling-stroke"  transform=" translate(-255.95, -256)" d="M 459.1 52.4 L 442.6 6.5 C 440.7 2.6 436.5 0 432.1 0 C 427.70000000000005 0 423.6 2.6 421.70000000000005 6.5 L 405.2 52.4 L 359.2 69.2 C 354.9 70.8 351.9 75.10000000000001 352 79.60000000000001 C 352 84.10000000000001 355 88.30000000000001 359.2 89.80000000000001 L 404.9 106.60000000000001 L 421.7 152.4 C 423.2 156.8 427.5 159.9 432.09999999999997 159.9 C 436.69999999999993 159.9 440.99999999999994 156.8 442.49999999999994 152.4 L 458.99999999999994 106.60000000000001 L 504.69999999999993 89.80000000000001 C 508.8999999999999 88.30000000000001 511.8999999999999 84.10000000000001 511.8999999999999 79.60000000000001 C 511.8999999999999 75.00000000000001 508.8999999999999 70.7 504.69999999999993 69.2 L 459.1 52.4 z M 326.70000000000005 105.4 C 314.20000000000005 92.9 293.90000000000003 92.9 281.40000000000003 105.4 L 278.50000000000006 108.30000000000001 C 256.5 100.3 232.7 96 208 96 C 93.1 96 0 189.1 0 304 C 0 418.9 93.1 512 208 512 C 322.9 512 416 418.9 416 304 C 416 279.3 411.7 255.5 403.8 233.5 L 406.7 230.6 C 419.2 218.1 419.2 197.8 406.7 185.3 L 326.7 105.30000000000001 z M 200 192 C 142.6 192 96 238.6 96 296 L 96 304 C 96 312.8 88.8 320 80 320 C 71.2 320 64 312.8 64 304 L 64 296 C 64 220.9 124.9 160 200 160 L 208 160 C 216.8 160 224 167.2 224 176 C 224 184.8 216.8 192 208 192 L 200 192 z" stroke-linecap="round" />
</g>
<g transform="matrix(0 0 0 0 0 0)"  >
<g style=""   >
</g>
</g>
<g transform="matrix(0 0 0 0 0 0)"  >
<g style=""   >
</g>
</g>
<g transform="matrix(0 0 0 0 0 0)"  >
<g style=""   >
</g>
</g>
<g transform="matrix(0 0 0 0 0 0)"  >
<g style=""   >
</g>
</g>
<g transform="matrix(0 0 0 0 0 0)"  >
<g style=""   >
</g>
</g>
<g transform="matrix(0 0 0 0 0 0)"  >
<g style=""   >
</g>
</g>
<g transform="matrix(5.18 5.18 -0.32 0.32 496.86 576.73)" id="c12810a0-7472-4f5e-a920-e2b7583e02ed"  >
<rect style="stroke: rgb(0,0,0); stroke-width: 0; stroke-dasharray: none; stroke-linecap: butt; stroke-dashoffset: 0; stroke-linejoin: miter; stroke-miterlimit: 4; fill: rgb(217,4,41); fill-rule: nonzero; opacity: 1;" vector-effect="non-scaling-stroke"  x="-37.165" y="-37.165" rx="0" ry="0" width="74.33" height="74.33" />
</g>
<g transform="matrix(0 0 0 0 0 0)"  >
<g style=""   >
</g>
</g>
<g transform="matrix(0 0 0 0 0 0)"  >
<g style=""   >
</g>
</g>
<g transform="matrix(-5.18 5.18 -0.31 -0.31 489.37 590.45)" id="c12810a0-7472-4f5e-a920-e2b7583e02ed"  >
<rect style="stroke: rgb(0,0,0); stroke-width: 0; stroke-dasharray: none; stroke-linecap: butt; stroke-dashoffset: 0; stroke-linejoin: miter; stroke-miterlimit: 4; fill: rgb(217,4,41); fill-rule: nonzero; opacity: 1;" vector-effect="non-scaling-stroke"  x="-37.165" y="-37.165" rx="0" ry="0" width="74.33" height="74.33" />
</g>
</svg>